Coordinates
version=1
nRows=17
nColumns=38
inDegrees=no

Units are S.I. units (second, meters, Newtons, ...)
If the header above contains a line with 'inDegrees', this indicates whether rotational values are in degrees (yes) or radians (no).

endheader
time	pelvis_tilt	pelvis_list	pelvis_rotation	pelvis_tx	pelvis_ty	pelvis_tz	hip_flexion_r	hip_adduction_r	hip_rotation_r	knee_angle_r	ankle_angle_r	subtalar_angle_r	mtp_angle_r	hip_flexion_l	hip_adduction_l	hip_rotation_l	knee_angle_l	ankle_angle_l	subtalar_angle_l	mtp_angle_l	lumbar_extension	lumbar_bending	lumbar_rotation	arm_flex_r	arm_add_r	arm_rot_r	elbow_flex_r	pro_sup_r	wrist_flex_r	wrist_dev_r	arm_flex_l	arm_add_l	arm_rot_l	elbow_flex_l	pro_sup_l	wrist_flex_l	wrist_dev_l
40	0.238662	1.47257	1.26825	0.672242	0.854602	1.03435	0.276435	-0.0820682	-0.25959	0.548361	-0.234229	0	0	0.19389	-0.14117	-0.40941	0.453685	-0.302301	0	0	0.0280312	0.0978525	-0.282885	0.366138	-0.11974	0.459455	0.0180461	1.5708	0	0	-0.361182	-0.174508	-0.147538	0.922129	1.41879	0	0
40.01	0.231491	1.47024	1.27251	0.67257	0.853647	1.03236	0.287641	-0.0821249	-0.255052	0.561112	-0.227363	0	0	0.204735	-0.143869	-0.406932	0.471009	-0.291792	0	0	0.0258148	0.104388	-0.283123	0.375249	-0.120754	0.456449	0.00978393	1.5708	0	0	-0.360103	-0.171541	-0.148898	0.922719	1.41054	0	0
40.02	0.227666	1.46841	1.27429	0.672749	0.852678	1.03026	0.298256	-0.0828393	-0.249828	0.577556	-0.219536	0	0	0.215496	-0.146676	-0.404123	0.489331	-0.281192	0	0	0.0226293	0.111185	-0.283565	0.38349	-0.122916	0.454921	0.0041181	1.5708	0	0	-0.358102	-0.169029	-0.149005	0.922893	1.40168	0	0
40.03	0.220475	1.4663	1.27933	0.67295	0.851659	1.02791	0.31012	-0.083413	-0.242767	0.594594	-0.212213	0	0	0.22716	-0.149561	-0.40159	0.509152	-0.270983	0	0	0.0195319	0.117559	-0.283587	0.390859	-0.125757	0.453607	0.000647968	1.5708	0	0	-0.356247	-0.167373	-0.148121	0.923764	1.39271	0	0
40.04	0.213121	1.46383	1.28415	0.673187	0.85048	1.02537	0.322971	-0.0841879	-0.236974	0.612649	-0.206275	0	0	0.239555	-0.152876	-0.39918	0.529696	-0.262732	0	0	0.0159626	0.123933	-0.282584	0.397778	-0.129298	0.452521	0	1.5708	0	0	-0.353465	-0.166632	-0.146081	0.924615	1.38405	0	0
40.05	0.201088	1.46084	1.29387	0.673424	0.849258	1.02255	0.337173	-0.0852737	-0.230728	0.631233	-0.197385	0	0	0.253177	-0.156129	-0.39726	0.5515	-0.251348	0	0	0.0133838	0.129781	-0.281656	0.404213	-0.132794	0.450827	0	1.5708	0	0	-0.350665	-0.168202	-0.139604	0.925314	1.36817	0	0
40.06	0.188852	1.45724	1.30359	0.673663	0.847998	1.01952	0.352299	-0.0869654	-0.226252	0.651684	-0.186904	0	0	0.267979	-0.159487	-0.395747	0.574126	-0.238251	0	0	0.0116916	0.135697	-0.279845	0.410008	-0.136803	0.448669	0	1.5708	0	0	-0.346968	-0.171485	-0.129164	0.924545	1.34819	0	0
40.07	0.17516	1.4528	1.3132	0.67407	0.846498	1.01628	0.37019	-0.0882214	-0.223144	0.673265	-0.178258	0	0	0.284106	-0.1634	-0.394746	0.597722	-0.226343	0	0	0.0102276	0.141638	-0.275923	0.415972	-0.141092	0.447548	0	1.5708	0	0	-0.342088	-0.175256	-0.118197	0.922615	1.33065	0	0
40.08	0.162127	1.45014	1.32283	0.674378	0.845052	1.01301	0.385935	-0.0900351	-0.218657	0.695784	-0.169588	0	0	0.298501	-0.16678	-0.393712	0.621833	-0.21565	0	0	0.00654063	0.147063	-0.272488	0.422439	-0.145385	0.447831	0	1.5708	0	0	-0.336596	-0.178763	-0.1084	0.92052	1.31546	0	0
40.09	0.1452	1.44785	1.33754	0.674609	0.843741	1.00958	0.400658	-0.0923577	-0.212973	0.717129	-0.158007	0	0	0.312722	-0.169337	-0.39201	0.646455	-0.202669	0	0	0.00341191	0.151574	-0.270248	0.428222	-0.149539	0.448872	0	1.5708	0	0	-0.33151	-0.183372	-0.0966704	0.918266	1.29757	0	0
40.1	0.130334	1.44628	1.3507	0.674767	0.84248	1.00614	0.413877	-0.0959524	-0.20982	0.740056	-0.146781	0	0	0.325856	-0.171821	-0.390592	0.670814	-0.190424	0	0	-0.000645752	0.156248	-0.26845	0.434015	-0.153839	0.451835	0	1.5708	0	0	-0.325725	-0.187311	-0.0863464	0.915039	1.28331	0	0
40.11	0.11614	1.44545	1.36219	0.675011	0.841083	1.00268	0.426852	-0.0990185	-0.206146	0.762546	-0.13618	0	0	0.337756	-0.174551	-0.390893	0.694471	-0.178363	0	0	-0.00605444	0.160983	-0.265399	0.439986	-0.15827	0.46091	0	1.56872	0	0	-0.318643	-0.19112	-0.0764287	0.910648	1.27156	0	0
40.12	0.101443	1.44506	1.37372	0.675354	0.839635	0.999132	0.439589	-0.101302	-0.201895	0.783869	-0.12542	0	0	0.348829	-0.17701	-0.390832	0.717399	-0.166079	0	0	-0.0121259	0.165345	-0.261324	0.445879	-0.162861	0.473848	0	1.54329	0	0	-0.310801	-0.195186	-0.0668039	0.905648	1.26236	0	0
40.13	0.0860501	1.44428	1.38651	0.67566	0.838242	0.995427	0.452598	-0.103713	-0.198611	0.805198	-0.114502	0	0	0.360184	-0.179257	-0.390419	0.74001	-0.153784	0	0	-0.0175313	0.169555	-0.257705	0.451463	-0.167703	0.48622	0	1.51715	0	0	-0.302793	-0.199137	-0.0579194	0.899943	1.256	0	0
40.14	0.0689876	1.44304	1.40157	0.675884	0.836927	0.991553	0.465877	-0.106986	-0.196287	0.826773	-0.103583	0	0	0.371943	-0.181326	-0.390284	0.762534	-0.141449	0	0	-0.0221627	0.17343	-0.254747	0.456584	-0.172658	0.497289	0	1.48948	0	0	-0.294884	-0.202745	-0.0503763	0.893807	1.2519	0	0
40.15	0.0536995	1.44188	1.41507	0.676102	0.835694	0.987586	0.478603	-0.110383	-0.194632	0.848049	-0.0926905	0	0	0.38352	-0.18324	-0.38904	0.784968	-0.128891	0	0	-0.0269121	0.177383	-0.251981	0.461449	-0.177664	0.50844	0	1.46153	0	0	-0.28694	-0.206041	-0.044215	0.887279	1.25004	0	0
40.16	0.0402898	1.44114	1.42671	0.676325	0.834491	0.983544	0.49072	-0.113425	-0.192716	0.868665	-0.0819087	0	0	0.394555	-0.185192	-0.386942	0.807482	-0.116232	0	0	-0.0321283	0.181285	-0.249334	0.466208	-0.182568	0.519078	0	1.43186	0	0	-0.278871	-0.209006	-0.0397624	0.880309	1.25015	0	0
